<?xml version="1.0" encoding="UTF-8"?>
<!DOCTYPE svg PUBLIC "-//W3C//DTD SVG 1.1//EN" "http://www.w3.org/Graphics/SVG/1.1/DTD/svg11.dtd">
<!-- Creator: CorelDRAW X8 -->
<svg xmlns="http://www.w3.org/2000/svg" xml:space="preserve" width="135.467mm" height="104.372mm" version="1.1" style="shape-rendering:geometricPrecision; text-rendering:geometricPrecision; image-rendering:optimizeQuality; fill-rule:evenodd; clip-rule:evenodd"
viewBox="0 0 13547 10437"
 xmlns:xlink="http://www.w3.org/1999/xlink"
 enable-background="new 0 0 512 512">
 <defs>
  <style type="text/css">
   <![CDATA[
    .fil0 {fill:#E5007D}
   ]]>
  </style>
 </defs>
 <g id="Warstwa_x0020_1">
  <metadata id="CorelCorpID_0Corel-Layer"/>
  <g id="_1302032630336">
   <g>
    <path class="fil0" d="M1965 10437c-101,0 -203,-39 -280,-116 -155,-155 -155,-406 0,-561l469 -470c155,-155 407,-155 562,0 155,155 155,406 0,561l-470 470c-77,77 -179,116 -281,116z"/>
   </g>
   <g>
    <path class="fil0" d="M1429 8307c-102,0 -203,-38 -281,-116l-469 -469c-155,-155 -155,-407 0,-562 154,-155 406,-155 561,0l469 470c155,155 155,406 0,561 -77,78 -179,116 -280,116z"/>
   </g>
   <g>
    <path class="fil0" d="M10069 7355c-102,0 -203,-39 -281,-116l-184 -184c-155,-155 -155,-406 0,-561 155,-155 407,-155 561,0l184 184c155,155 155,406 0,561 -77,77 -179,116 -280,116z"/>
   </g>
   <g>
    <path class="fil0" d="M4389 6511c-102,0 -204,-39 -281,-116l-184 -184c-155,-155 -155,-406 0,-561 155,-155 406,-155 561,0l184 184c155,155 155,406 0,561 -77,77 -179,116 -280,116z"/>
   </g>
   <g>
    <path class="fil0" d="M5884 7354c-101,0 -203,-39 -280,-116 -155,-155 -155,-406 0,-561l184 -184c155,-155 406,-155 561,0 155,155 155,406 0,561l-184 184c-78,77 -179,116 -281,116z"/>
   </g>
   <g>
    <path class="fil0" d="M13547 3585c0,-219 -178,-397 -397,-397 -219,0 -397,178 -397,397 0,660 -537,1197 -1197,1197l-4820 0c-855,-58 -1517,-303 -1957,-1280l0 -1511c0,-1098 -893,-1991 -1991,-1991 -219,0 -397,178 -397,397l0 1197 -1994 0c-219,0 -397,178 -397,397l0 580c0,376 130,745 365,1039 236,294 568,501 936,583l1090 243 0 1352c0,610 170,1206 490,1725 277,447 655,820 1104,1089l0 1360c0,219 178,396 397,396l736 0c692,0 1255,-563 1255,-1255l0 -410 2247 -449c266,243 593,409 945,480l0 1238c0,219 177,396 397,396l735 0c693,0 1256,-563 1256,-1255l0 -1533c0,-42 -7,-85 -21,-125l-623 -1869 247 0c1098,0 1991,-893 1991,-1991zm-9562 -1594l0 5c-232,-176 -504,-302 -800,-362l0 -773c466,164 800,609 800,1130zm7174 7112c0,255 -207,462 -462,462l-339 0 0 -1198c0,-219 -177,-396 -396,-396 -347,0 -676,-151 -904,-413 -299,-381 -307,-632 -304,-688 8,-31 12,-63 10,-97 -9,-215 -174,-397 -397,-397 -192,0 -376,157 -395,350 -7,129 -38,417 142,809l-2216 443c-185,37 -319,200 -319,389l0 736c0,255 -207,462 -461,462l-339 0 0 -1198c0,-150 -85,-287 -219,-355 -848,-424 -1375,-1276 -1375,-2224l0 -1670c0,-186 -129,-347 -311,-388l-1401 -312c-400,-89 -679,-437 -679,-847l0 -183 1994 0c660,0 1197,537 1197,1197 0,53 11,106 32,155 641,1512 1769,1775 2679,1835 9,1 18,1 27,1l3750 0 686 2059 0 1468z"/>
   </g>
  </g>
 </g>
</svg>
